HIERARCHY
ROOT Hips
{
	OFFSET 0.000000 0.000000 0.000000
	CHANNELS 6 Xposition Yposition Zposition Zrotation Yrotation Xrotation 
	JOINT LHipJoint
	{
		OFFSET 0.000000 0.000000 0.000000
		CHANNELS 3 Zrotation Yrotation Xrotation
		JOINT LeftUpLeg
		{
			OFFSET 1.363060 -1.794630 0.839290
			CHANNELS 3 Zrotation Yrotation Xrotation
			JOINT LeftLeg
			{
				OFFSET 2.448110 -6.726130 0.000000
				CHANNELS 3 Zrotation Yrotation Xrotation
				JOINT LeftFoot
				{
					OFFSET 2.562200 -7.039590 0.000000
					CHANNELS 3 Zrotation Yrotation Xrotation
					JOINT LeftToeBase
					{
						OFFSET 0.157640 -0.433110 2.322550
						CHANNELS 3 Zrotation Yrotation Xrotation
						End Site
						{
							OFFSET 0.000000 0.000000 0.000000
						}
					}
				}
			}
		}
	}
	JOINT RHipJoint
	{
		OFFSET 0.000000 0.000000 0.000000
		CHANNELS 3 Zrotation Yrotation Xrotation
		JOINT RightUpLeg
		{
			OFFSET -1.305520 -1.794630 0.839290
			CHANNELS 3 Zrotation Yrotation Xrotation
			JOINT RightLeg
			{
				OFFSET -2.542530 -6.985550 0.000000
				CHANNELS 3 Zrotation Yrotation Xrotation
				JOINT RightFoot
				{
					OFFSET -2.568260 -7.056230 0.000000
					CHANNELS 3 Zrotation Yrotation Xrotation
					JOINT RightToeBase
					{
						OFFSET -0.164730 -0.452590 2.363150
						CHANNELS 3 Zrotation Yrotation Xrotation
						End Site
						{
							OFFSET 0.000000 0.000000 0.000000
						}
					}
				}
			}
		}
	}
}
MOTION
Frames: 27
Frame Time: 0.008333
6.397521 21.361311 0.683801 22.413043 -80.921917 -8.425463 -13.220636 6.127382 6.050482 4.373506 -22.426087 -19.369072 5.934280 6.535295 111.100564 2.500197 5.437063 33.752074 2.235500 0.000000 -62.475800 14.220632 -6.284127 4.133701 -0.949043 17.499367 -9.402326 -9.616486 -7.337448 118.938578 -1.500795 -6.985739 -3.162770 -0.399000 -0.000000 -72.387300
6.201545 21.426000 0.671817 21.545899 -81.162827 -7.693949 -13.507295 6.171032 6.049988 5.527444 -24.070969 -19.726998 6.674390 6.962590 114.527566 2.278756 3.390329 34.146339 1.042599 -0.000000 -62.415200 14.439336 -6.362253 4.206615 -1.394117 19.477891 -9.420854 -10.952282 -7.690419 123.757758 -1.472209 -7.090511 -4.982811 -0.276600 -0.000000 -70.575600
5.999224 21.484206 0.663347 20.313195 -81.336894 -6.523391 -13.772016 6.203637 6.131658 6.825581 -25.902621 -20.131144 7.365845 7.335184 117.359164 2.056257 1.373489 34.529813 -0.149899 -0.000000 -62.003200 14.611925 -6.406177 4.332082 -1.874151 21.500411 -9.441413 -12.226540 -7.953059 127.894557 -1.481860 -7.327809 -6.502109 -0.174300 -0.000000 -68.689700
5.789734 21.536888 0.657263 18.962310 -81.444933 -5.142702 -13.998875 6.222619 6.298496 8.211113 -27.849724 -20.652919 7.966129 7.645664 119.565351 1.848632 -0.511357 34.883465 -1.283700 0.000001 -61.369200 14.744054 -6.415035 4.512365 -2.450101 23.528457 -9.569619 -13.361390 -8.129556 131.279814 -1.521096 -7.643839 -7.681354 -0.089600 0.000000 -66.917400
5.574821 21.583831 0.653692 17.321449 -81.447966 -3.426838 -14.187800 6.225696 6.531774 9.703801 -29.840301 -21.318843 8.449802 7.897743 121.147432 1.673753 -2.113059 35.145378 -2.263100 0.000000 -60.496700 14.828832 -6.387384 4.708062 -3.043583 25.388446 -9.840989 -14.280658 -8.233385 133.865402 -1.591351 -8.078703 -8.547305 -0.022100 0.000000 -65.147900
5.355116 21.625188 0.650622 15.780759 -81.367875 -1.769081 -14.324681 6.206985 6.817532 11.196933 -31.755722 -22.167674 8.788307 8.087429 122.114973 1.548988 -3.289321 35.293848 -2.991600 -0.000000 -59.618500 14.885808 -6.325016 4.904085 -3.707149 26.997542 -10.343876 -14.940240 -8.285690 135.645897 -1.678189 -8.578876 -9.190749 0.036500 0.000000 -63.448901
5.132727 21.660636 0.647413 14.347503 -81.196719 -0.219344 -14.409759 6.160548 7.128665 12.639495 -33.504019 -23.179860 8.971988 8.217329 122.497265 1.487361 -3.899931 35.291214 -3.370900 0.000000 -58.943800 14.919452 -6.227233 5.061926 -4.358918 28.206033 -11.074406 -15.313304 -8.304613 136.640237 -1.778621 -9.159249 -9.722189 0.098000 0.000000 -61.825400
4.909553 21.689737 0.642839 13.195989 -80.956887 1.018134 -14.440142 6.077830 7.438984 13.921648 -34.992695 -24.308379 8.999374 8.285993 122.332222 1.494910 -3.854648 35.104097 -3.338000 0.000000 -58.649900 14.938421 -6.093999 5.157261 -4.961323 28.938710 -12.012714 -15.400514 -8.303800 136.892221 -1.882074 -9.779727 -10.251459 0.177400 0.000000 -60.280600
4.687359 21.712770 0.636299 12.366893 -80.668816 1.873728 -14.417369 5.951346 7.722093 14.947765 -36.161006 -25.474044 8.880623 8.292029 121.659556 1.569223 -3.130617 34.684948 -2.880700 -0.000000 -58.734100 14.941878 -5.925755 5.171492 -5.449220 29.165416 -13.092998 -15.215570 -8.288475 136.451390 -1.975859 -10.381528 -10.849459 0.286000 -0.000000 -58.815900
4.467778 21.729830 0.627575 11.841411 -80.357303 2.347494 -14.345215 5.776175 7.955465 15.644427 -36.976302 -26.592534 8.633365 8.234252 120.518116 1.699981 -1.786512 33.996144 -2.050600 0.000001 -59.229001 14.924562 -5.724725 5.100668 -5.778345 28.923690 -14.242454 -14.785921 -8.257403 135.377030 -2.042447 -10.870158 -11.535286 0.424400 -0.000000 -57.407500
4.251878 21.740973 0.616849 11.540466 -80.042803 2.510487 -14.229592 5.553164 8.122006 15.979031 -37.437540 -27.589773 8.282173 8.113973 118.945761 1.869707 0.038064 33.001330 -0.959901 -0.000000 -59.910500 14.877775 -5.495449 4.952908 -5.922476 28.299327 -15.386012 -14.145855 -8.205070 133.726462 -2.064996 -11.145623 -12.269958 0.577499 0.000000 -56.068399
4.040360 21.745866 0.604327 11.398585 -79.746273 2.427975 -14.076298 5.288463 8.209858 15.948847 -37.563591 -28.410988 7.852386 7.935257 116.975390 2.056438 2.137979 31.694940 0.236600 0.000001 -60.339500 14.794678 -5.243578 4.745958 -5.890385 27.410623 -16.462229 -13.336718 -8.125084 131.556653 -2.033399 -11.134285 -12.971207 0.716500 -0.000000 -54.869200
3.833415 21.743946 0.590316 11.367384 -79.486311 2.159883 -13.891625 4.991767 8.214267 15.583629 -37.385896 -29.031441 7.365788 7.704747 114.637559 2.239020 4.291878 30.139045 1.384000 0.000000 -60.277100 14.673127 -4.974695 4.504105 -5.718568 26.382762 -17.436448 -12.407289 -8.012435 128.932484 -1.948297 -10.812528 -13.537066 0.809400 -0.000001 -53.898600
3.630656 21.734129 0.575254 11.407082 -79.277580 1.766482 -13.682622 4.674188 8.139229 14.942589 -36.942378 -29.459499 6.839732 7.430368 111.961418 2.400526 6.299328 28.453883 2.363500 0.000000 -59.560100 14.515019 -4.693141 4.254870 -5.453680 25.327520 -18.301352 -11.406807 -7.863848 125.918016 -1.823130 -10.226415 -13.865317 0.834600 -0.000000 -53.323900
3.431465 21.715817 0.559418 11.530497 -79.131758 1.253128 -13.453937 4.345596 7.991892 14.074394 -36.274053 -29.706733 6.286681 7.119926 108.975571 2.531569 8.026445 26.805114 3.122600 -0.000000 -58.226200 14.326636 -4.401439 4.017610 -5.144889 24.329853 -19.053462 -10.382130 -7.679688 122.577713 -1.679839 -9.477376 -13.901458 0.793500 -0.000000 -53.261000
3.234736 21.687465 0.543376 11.733090 -79.055297 0.649724 -13.211219 4.014108 7.787716 13.046620 -35.422832 -29.808564 5.717160 6.779822 105.707179 2.630696 9.407355 25.371792 3.668100 -0.000001 -56.541300 14.115378 -4.101837 3.810378 -4.833063 23.446893 -19.712639 -9.372081 -7.462252 118.973128 -1.542682 -8.695640 -13.634609 0.705499 0.000000 -53.785799
3.039659 21.648560 0.527694 12.024479 -79.049283 -0.035242 -12.959003 3.685145 7.543792 11.915678 -34.431973 -29.799797 5.142287 6.415468 102.185373 2.702226 10.438414 24.306416 4.047100 -0.000000 -54.859000 13.888907 -3.796164 3.643087 -4.551890 22.709726 -20.298866 -8.405146 -7.216123 115.157348 -1.432069 -8.007656 -13.100224 0.597200 -0.000001 -54.933300
2.845045 21.598490 0.513016 12.407390 -79.109109 -0.783717 -12.701591 3.363176 7.279431 10.735038 -33.346287 -29.715343 4.573848 6.031087 98.435632 2.753249 11.154224 23.707249 4.318199 0.000000 -53.554700 13.653434 -3.487504 3.521107 -4.325189 22.127821 -20.833001 -7.498906 -6.946730 111.173067 -1.360856 -7.510350 -12.369327 0.490800 0.000000 -56.594700
2.650090 21.536677 0.499870 12.884095 -79.225332 -1.583578 -12.442814 3.051564 7.012220 9.546979 -32.211815 -29.583581 4.024385 5.631050 94.483638 2.790181 11.602864 23.603877 4.528400 -0.000000 -52.895200 13.413587 -3.179176 3.444376 -4.169839 21.694889 -21.329174 -6.662143 -6.659644 107.050739 -1.333850 -7.258294 -11.518838 0.396500 -0.000000 -58.616800
2.454363 21.463213 0.488692 13.454172 -79.384249 -2.426908 -12.186286 2.753396 6.756443 8.383153 -31.073402 -29.425887 3.506591 5.220741 90.357574 2.816090 11.824926 23.948365 4.699900 -0.000000 -52.881100 13.172600 -2.874658 3.408773 -4.097430 21.393129 -21.792703 -5.897574 -6.359890 102.809494 -1.349195 -7.261396 -10.611075 0.312500 -0.000000 -60.828700
2.257451 21.377847 0.479559 14.127062 -79.569087 -3.317139 -11.934383 2.471886 6.523297 7.262354 -29.975456 -29.254315 3.030444 4.806006 86.081838 2.831351 11.850909 24.650662 4.834600 -0.000000 -53.522600 12.933520 -2.577569 3.407409 -4.116556 21.197512 -22.222089 -5.204691 -6.052129 98.464608 -1.399420 -7.484938 -9.695393 0.230900 0.000000 -62.946100
2.059369 21.280788 0.472379 14.916130 -79.762284 -4.267858 -11.688756 2.210062 6.319910 6.193630 -28.957928 -29.076220 2.603803 4.393722 81.680766 2.833099 11.693796 25.583850 4.914300 -0.000001 -54.660900 12.699355 -2.290829 3.431759 -4.233459 21.079284 -22.611294 -4.581309 -5.740316 94.028338 -1.473870 -7.862675 -8.792237 0.141300 -0.000000 -64.699500
1.860262 21.172049 0.466871 15.836768 -79.946551 -5.296759 -11.450903 1.971093 6.149170 5.179085 -28.050237 -28.899226 2.232727 3.992020 77.182924 2.815531 11.349665 26.590265 4.905700 -0.000000 -56.129900 12.473127 -2.016590 3.473425 -4.451538 21.008506 -22.955247 -4.024458 -5.427568 89.511736 -1.560178 -8.309816 -7.895521 0.034400 -0.000000 -65.863300
1.660203 21.051616 0.462550 16.918357 -80.106922 -6.434162 -11.220272 1.757401 6.012858 4.213889 -27.278581 -28.725360 1.917180 3.607446 72.599602 2.775022 10.823608 27.566820 4.789000 -0.000000 -58.098300 12.258352 -1.755954 3.525108 -4.773903 20.957001 -23.253295 -3.530990 -5.116274 84.925790 -1.645704 -8.738252 -6.981938 -0.095500 -0.000000 -66.300499
1.459342 20.919801 0.459023 18.171493 -80.231719 -7.692527 -10.997846 1.571642 5.908916 3.293599 -26.648366 -28.565832 1.656282 3.248104 67.951412 2.704749 10.105745 28.375164 4.535800 0.000000 -60.207400 12.057296 -1.509552 3.582387 -5.198282 20.899252 -23.512265 -3.097428 -4.807715 80.276997 -1.719578 -9.074273 -6.012573 -0.251200 0.000000 -66.032300
1.257816 20.776432 0.455980 19.593813 -80.315359 -9.070577 -10.784316 1.415275 5.834360 2.414054 -26.151664 -28.432145 1.443403 2.920315 63.246175 2.600779 9.207668 28.933305 4.143800 0.000000 -62.465700 11.870983 -1.277586 3.643778 -5.718396 20.815155 -23.745536 -2.720113 -4.502191 75.565466 -1.773725 -9.267505 -4.946168 -0.432000 0.000000 -65.209600
1.055602 20.622029 0.453398 21.157408 -80.358787 -10.538549 -10.581501 1.289024 5.784873 1.573642 -25.761361 -28.340403 1.267810 2.629202 58.490607 2.459764 8.148392 29.183932 3.625500 0.000000 -64.472700 11.698351 -1.060888 3.711407 -6.321761 20.691212 -23.971396 -2.395263 -4.198896 70.781502 -1.803828 -9.296535 -3.743614 -0.634700 -0.000000 -64.087500
